<?xml version="1.0" standalone="no"?>
<!DOCTYPE svg PUBLIC "-//W3C//DTD SVG 20010904//EN"
 "http://www.w3.org/TR/2001/REC-SVG-20010904/DTD/svg10.dtd">
<svg version="1.0" xmlns="http://www.w3.org/2000/svg"
 width="1080.000000pt" height="1920.000000pt" viewBox="0 0 1080.000000 1920.000000"
 preserveAspectRatio="xMidYMid meet">

<g transform="translate(0.000000,1920.000000) scale(0.100000,-0.100000)"
fill="#000000" stroke="none">
<path d="M5650 10325 l0 -45 60 0 60 0 0 45 0 45 -60 0 -60 0 0 -45z"/>
<path d="M4687 10333 c-4 -3 -7 -138 -7 -300 l0 -293 125 0 125 0 0 50 0 50
-65 0 -65 0 0 250 0 250 -53 0 c-30 0 -57 -3 -60 -7z"/>
<path d="M5023 10230 c-63 -38 -68 -57 -68 -235 0 -179 7 -206 62 -238 40 -23
129 -25 172 -3 57 30 66 63 66 236 0 174 -9 204 -68 240 -43 26 -121 26 -164
0z m102 -235 c0 -153 -1 -160 -20 -160 -19 0 -20 8 -23 150 -1 82 0 155 3 163
3 7 13 12 22 10 16 -3 18 -19 18 -163z"/>
<path d="M5343 10235 c-32 -23 -43 -75 -43 -210 0 -131 10 -183 40 -210 27
-24 93 -25 119 -1 21 19 21 19 21 -2 0 -29 -34 -62 -62 -62 -13 1 -36 7 -53
14 -28 12 -31 11 -47 -16 -24 -38 -23 -45 12 -63 39 -20 161 -20 205 1 60 28
65 53 65 323 l0 241 -60 0 c-53 0 -60 -2 -60 -20 l0 -20 -20 20 c-24 24 -86
27 -117 5z m126 -89 c8 -9 11 -54 9 -132 -3 -113 -4 -119 -24 -122 -15 -2 -23
4 -28 20 -7 30 -8 196 0 226 7 25 26 29 43 8z"/>
<path d="M5650 9995 l0 -255 60 0 60 0 0 255 0 255 -60 0 -60 0 0 -255z"/>
<path d="M5820 9995 l0 -255 60 0 60 0 0 199 c0 164 3 201 15 211 12 10 18 10
30 0 12 -10 15 -47 15 -211 l0 -199 60 0 60 0 0 203 c0 215 -8 267 -43 292
-35 25 -92 19 -116 -11 l-21 -27 0 27 c0 25 -2 26 -60 26 l-60 0 0 -255z"/>
<path d="M3960 7934 c0 -165 23 -204 120 -204 98 0 120 36 120 199 0 74 -4
121 -10 121 -6 0 -10 -45 -10 -115 0 -160 -14 -185 -103 -185 -80 1 -97 35
-97 191 0 66 -4 109 -10 109 -6 0 -10 -45 -10 -116z"/>
<path d="M4287 7952 c-22 -24 -22 -56 -1 -73 10 -8 40 -25 68 -39 53 -26 67
-50 45 -77 -10 -11 -28 -14 -76 -11 -35 2 -63 1 -63 -3 0 -23 116 -26 148 -3
27 19 29 65 5 86 -10 8 -34 21 -53 28 -75 29 -93 71 -37 89 21 7 43 8 65 1 25
-7 32 -6 29 3 -2 7 -27 13 -58 15 -44 2 -59 -1 -72 -16z"/>
<path d="M4528 7956 c-30 -22 -50 -85 -43 -132 9 -62 45 -94 106 -94 50 0 79
7 79 19 0 4 -24 6 -54 3 -29 -2 -63 1 -74 7 -20 11 -44 67 -35 84 2 4 43 7 90
7 l85 0 -7 38 c-10 55 -40 82 -89 82 -23 0 -49 -7 -58 -14z m96 -17 c15 -12
26 -30 26 -45 0 -23 -3 -24 -70 -24 -57 0 -70 3 -70 16 0 25 20 54 43 64 33
13 42 12 71 -11z"/>
<path d="M4740 7850 c0 -73 4 -120 10 -120 6 0 10 30 10 70 0 70 17 131 40
145 7 4 26 8 41 7 16 0 29 4 29 9 0 18 -64 9 -87 -13 l-23 -21 0 21 c0 12 -4
22 -10 22 -6 0 -10 -47 -10 -120z"/>
<path d="M4920 7850 c0 -73 4 -120 10 -120 6 0 10 33 10 80 0 43 5 90 11 104
22 48 116 56 133 11 3 -9 6 -57 6 -106 0 -53 4 -89 10 -89 14 0 13 176 -1 203
-7 12 -17 25 -23 29 -20 13 -91 8 -114 -8 -20 -14 -22 -14 -22 0 0 9 -4 16
-10 16 -6 0 -10 -47 -10 -120z"/>
<path d="M5210 7960 c-23 -14 -6 -22 24 -10 52 19 96 -8 96 -59 0 -17 -6 -21
-37 -22 -95 -1 -145 -49 -112 -107 21 -38 90 -44 125 -11 l24 22 0 -21 c0 -12
5 -22 10 -22 6 0 10 40 10 100 0 87 -3 103 -20 120 -22 22 -92 28 -120 10z
m120 -134 c0 -41 -36 -76 -80 -76 -45 0 -65 20 -56 55 8 31 35 43 94 44 38 1
42 -1 42 -23z"/>
<path d="M5430 7850 c0 -73 4 -120 10 -120 6 0 10 36 10 89 0 105 15 134 70
134 50 0 60 -22 60 -130 0 -55 4 -93 10 -93 6 0 10 36 10 89 0 105 15 134 70
134 50 0 60 -22 60 -130 0 -60 4 -93 11 -93 7 0 10 34 7 106 -3 91 -6 108 -22
120 -26 18 -86 18 -113 -1 -18 -13 -22 -13 -33 0 -17 20 -89 19 -112 -2 -17
-15 -18 -15 -18 0 0 10 -4 17 -10 17 -6 0 -10 -47 -10 -120z"/>
<path d="M5851 7946 c-47 -50 -45 -151 4 -193 26 -23 92 -31 129 -17 32 12 14
19 -43 16 -53 -3 -60 -1 -80 24 -11 14 -21 37 -21 50 0 23 2 24 85 24 77 0 85
2 85 19 0 28 -15 65 -35 84 -26 27 -96 22 -124 -7z m92 5 c19 -8 47 -53 47
-77 0 -2 -34 -4 -75 -4 -41 0 -75 4 -75 10 0 21 24 59 44 68 27 14 30 14 59 3z"/>
<path d="M5900 6714 l0 -65 -22 15 c-12 9 -41 16 -64 16 -35 0 -47 -5 -68 -31
-22 -25 -26 -41 -26 -89 0 -48 4 -64 26 -89 21 -26 33 -31 68 -31 23 0 52 7
64 16 20 14 22 14 22 0 0 -9 5 -16 10 -16 6 0 10 63 10 170 0 107 -4 170 -10
170 -6 0 -10 -29 -10 -66z m-52 -55 c47 -16 65 -87 41 -157 -13 -38 -55 -56
-98 -41 -71 25 -69 170 3 199 11 5 21 9 22 9 1 1 15 -4 32 -10z"/>
<path d="M4040 6601 c0 -101 4 -161 10 -161 6 0 10 28 10 64 l0 63 52 7 c59 8
103 28 112 51 12 32 6 83 -13 106 -16 20 -30 24 -95 27 l-76 4 0 -161z m150
119 c22 -22 26 -60 10 -90 -12 -22 -60 -40 -106 -40 l-34 0 0 75 0 75 55 0
c42 0 60 -5 75 -20z"/>
<path d="M4320 6670 c-23 -14 -6 -22 24 -10 52 19 96 -8 96 -59 0 -17 -6 -21
-37 -22 -95 -1 -145 -49 -112 -107 21 -38 90 -44 125 -11 l24 22 0 -21 c0 -12
5 -22 10 -22 6 0 10 40 10 100 0 87 -3 103 -20 120 -22 22 -92 28 -120 10z
m120 -134 c0 -41 -36 -76 -80 -76 -45 0 -65 20 -56 55 8 31 35 43 94 44 38 1
42 -1 42 -23z"/>
<path d="M4540 6660 c-38 -38 -22 -66 62 -105 58 -27 72 -43 62 -70 -8 -20
-45 -29 -100 -22 -31 3 -44 1 -41 -7 2 -7 29 -11 67 -11 56 0 65 3 82 26 30
40 12 71 -57 99 -64 26 -86 54 -61 78 15 15 70 21 103 11 6 -2 12 1 12 6 1 6
-23 11 -53 13 -45 2 -59 -1 -76 -18z"/>
<path d="M4758 6669 c-12 -6 -18 -22 -18 -45 0 -34 3 -37 64 -64 108 -49 99
-106 -17 -98 -38 3 -56 1 -54 -6 4 -12 89 -20 124 -12 29 8 46 41 38 73 -4 18
-22 32 -71 54 -59 27 -65 32 -62 56 4 32 40 45 93 33 26 -6 35 -5 32 3 -5 15
-107 20 -129 6z"/>
<path d="M4932 6663 c49 -176 65 -223 75 -223 7 0 26 44 43 97 17 54 33 99 35
101 2 2 18 -41 36 -97 17 -56 37 -101 43 -101 11 0 79 230 71 239 -10 10 -20
-14 -45 -111 l-26 -102 -34 107 c-18 59 -38 106 -44 104 -6 -2 -27 -50 -46
-107 l-34 -103 -14 54 c-27 113 -43 159 -53 159 -6 0 -9 -8 -7 -17z"/>
<path d="M5311 6656 c-47 -50 -45 -151 4 -193 34 -30 93 -31 128 -2 53 41 56
142 6 195 -32 34 -106 34 -138 0z m96 4 c36 -13 53 -46 53 -104 0 -61 -29 -96
-80 -96 -51 0 -80 35 -80 96 0 56 17 91 49 103 14 5 26 10 27 10 1 1 15 -4 31
-9z"/>
<path d="M5550 6560 c0 -73 4 -120 10 -120 6 0 10 30 10 70 0 70 17 131 40
145 7 4 26 8 41 7 16 0 29 4 29 9 0 18 -64 9 -87 -13 l-23 -21 0 21 c0 12 -4
22 -10 22 -6 0 -10 -47 -10 -120z"/>
<path d="M4925 5648 c-2 -7 -25 -93 -50 -191 -43 -165 -49 -206 -26 -181 8 8
101 357 101 377 0 12 -20 8 -25 -5z"/>
<path d="M6910 5651 c0 -5 9 -11 20 -14 17 -4 20 -14 20 -57 l0 -51 -26 20
c-37 29 -70 26 -105 -8 -26 -27 -29 -35 -29 -99 0 -89 22 -122 81 -122 26 0
46 7 59 20 l20 20 0 -20 c0 -17 7 -20 40 -20 42 0 54 14 20 23 -19 5 -20 14
-20 161 l0 156 -40 0 c-22 0 -40 -4 -40 -9z m16 -132 c25 -28 27 -131 2 -155
-19 -19 -64 -22 -81 -5 -6 6 -13 40 -15 75 -4 55 -1 67 17 85 27 27 53 27 77
0z"/>
<path d="M7728 5650 c21 -9 22 -13 22 -160 0 -124 -3 -150 -14 -150 -8 0 -18
-4 -21 -10 -4 -6 17 -10 57 -9 60 0 62 1 41 16 -22 15 -23 21 -23 169 l0 154
-42 -1 c-36 0 -39 -2 -20 -9z"/>
<path d="M7893 5644 c-7 -18 11 -39 26 -30 17 11 13 46 -4 46 -9 0 -18 -7 -22
-16z"/>
<path d="M8018 5644 c21 -14 22 -22 22 -156 0 -131 -1 -140 -20 -145 -40 -11
-18 -23 40 -23 65 0 74 5 35 20 l-25 10 0 155 0 155 -37 0 c-37 0 -37 0 -15
-16z"/>
<path d="M8158 5648 c21 -11 22 -16 22 -155 0 -136 -1 -145 -20 -150 -39 -10
-19 -23 35 -23 30 0 55 5 55 10 0 6 -6 10 -14 10 -31 0 -35 59 -5 86 18 16 22
16 29 4 25 -44 72 -100 84 -100 8 0 21 -3 30 -6 9 -3 16 -1 16 5 0 6 -7 11
-15 11 -14 0 -95 109 -95 129 0 5 21 28 46 50 l47 41 -49 -1 c-27 0 -43 -3
-36 -6 21 -8 13 -34 -25 -77 -20 -22 -40 -42 -45 -44 -4 -2 -8 48 -8 112 l0
116 -37 -1 c-35 0 -36 -1 -15 -11z"/>
<path d="M8677 5650 c21 -9 22 -14 22 -140 0 -117 -2 -133 -20 -151 -40 -40
-91 -16 -102 51 -8 42 6 110 25 121 19 13 62 11 76 -3 9 -9 12 -9 12 0 0 16
-34 32 -69 32 -39 0 -68 -28 -77 -75 -22 -120 53 -204 129 -145 l26 20 6 -20
c5 -15 15 -20 41 -20 21 0 33 4 29 10 -3 6 -12 10 -19 10 -21 0 -26 34 -26
183 l0 137 -37 -1 c-32 0 -35 -2 -16 -9z"/>
<path d="M8843 5644 c-8 -21 13 -42 28 -27 13 13 5 43 -11 43 -6 0 -13 -7 -17
-16z"/>
<path d="M9193 5644 c-8 -21 13 -42 28 -27 13 13 5 43 -11 43 -6 0 -13 -7 -17
-16z"/>
<path d="M9632 5638 c2 -12 10 -23 18 -23 22 0 19 39 -3 43 -15 3 -18 -1 -15
-20z"/>
<path d="M7090 5637 c-16 -8 -25 -21 -25 -37 0 -34 31 -39 39 -7 11 47 80 41
92 -7 7 -29 -18 -81 -46 -96 -14 -8 -20 -21 -20 -46 0 -42 23 -43 28 -1 2 15
11 29 22 32 47 15 75 89 50 135 -19 35 -95 50 -140 27z"/>
<path d="M1450 5635 c0 -3 11 -10 25 -15 25 -9 25 -11 25 -129 0 -127 -4 -151
-25 -151 -8 0 -17 -4 -20 -10 -4 -6 38 -10 119 -10 l126 0 0 50 c0 55 -17 68
-26 20 -9 -42 -25 -52 -81 -48 l-48 3 -3 115 c-3 127 1 160 23 160 7 0 17 5
20 10 4 6 -20 10 -64 10 -39 0 -71 -2 -71 -5z"/>
<path d="M4970 5635 c0 -3 11 -10 25 -15 25 -9 25 -11 25 -129 0 -127 -4 -151
-25 -151 -8 0 -17 -4 -20 -10 -4 -6 22 -10 69 -10 44 0 76 4 76 10 0 6 -11 10
-25 10 -27 0 -39 26 -33 76 3 27 7 29 52 35 37 4 55 12 72 33 33 38 33 98 -1
131 -22 23 -32 25 -120 25 -52 0 -95 -2 -95 -5z m174 -31 c10 -9 16 -33 16
-59 0 -53 -19 -75 -66 -75 l-34 0 0 75 0 75 34 0 c19 0 42 -7 50 -16z"/>
<path d="M7420 5627 c24 -12 25 -16 28 -127 3 -135 0 -155 -30 -165 -21 -7
-20 -8 9 -12 18 -2 50 -3 70 -1 32 3 35 5 18 13 -28 12 -35 25 -35 66 0 25 7
42 24 58 l24 23 48 -71 c38 -56 57 -73 83 -81 45 -12 51 -6 18 20 -14 11 -47
50 -72 86 -44 61 -46 68 -34 91 8 14 36 45 62 69 l49 44 -48 0 c-31 0 -44 -3
-36 -9 8 -5 12 -15 10 -24 -3 -18 -109 -146 -120 -146 -5 -1 -8 30 -8 67 0 68
10 94 40 105 8 3 -16 6 -55 6 -63 1 -67 -1 -45 -12z"/>
<path d="M2133 5558 c-13 -6 -23 -16 -23 -22 0 -6 -7 -3 -14 7 -11 14 -24 17
-53 15 -32 -3 -35 -5 -18 -13 11 -5 23 -13 27 -19 4 -6 8 -71 8 -143 0 -122
-2 -134 -20 -145 -33 -21 -23 -28 40 -28 58 0 80 12 40 23 -17 4 -20 14 -20
63 0 55 1 56 18 41 21 -19 73 -22 102 -7 23 12 40 61 40 117 0 92 -59 144
-127 111z m51 -24 c40 -15 43 -151 4 -178 -46 -32 -88 11 -88 91 0 72 33 106
84 87z"/>
<path d="M2360 5558 c-14 -8 -25 -22 -25 -33 0 -27 31 -31 38 -5 4 17 12 21
39 18 30 -3 33 -6 36 -39 l3 -36 -51 -5 c-58 -6 -90 -30 -90 -67 0 -45 26 -71
69 -71 22 0 44 6 51 15 7 8 16 15 21 15 5 0 9 -7 9 -15 0 -10 10 -15 30 -15
34 0 37 5 15 26 -11 11 -15 38 -15 98 0 51 -5 89 -13 100 -17 23 -85 31 -117
14z m90 -148 c0 -32 -30 -70 -54 -70 -18 0 -46 27 -46 43 0 30 32 57 66 57 31
0 34 -2 34 -30z"/>
<path d="M3012 5560 c-30 -13 -48 -53 -35 -82 5 -12 31 -33 59 -47 42 -23 49
-31 49 -56 0 -28 -3 -30 -35 -30 -27 0 -37 5 -45 23 -11 25 -28 24 -33 -2 -6
-30 18 -46 69 -46 58 0 89 24 89 68 0 33 -18 52 -75 79 -46 21 -58 55 -26 72
25 14 48 5 56 -20 8 -25 29 -20 33 7 5 34 -56 54 -106 34z"/>
<path d="M3229 5555 c-37 -20 -52 -64 -47 -132 4 -46 10 -61 32 -80 43 -36
146 -28 146 12 0 18 0 18 -37 0 -39 -19 -79 -6 -93 30 -20 52 -16 55 65 55
l75 0 0 34 c0 70 -80 116 -141 81z m89 -48 c18 -38 9 -47 -50 -47 -50 0 -50 0
-43 27 10 40 25 54 54 51 17 -2 31 -13 39 -31z"/>
<path d="M3511 5548 c-18 -19 -21 -19 -27 -5 -4 11 -18 17 -40 17 -37 0 -46
-15 -14 -23 18 -5 20 -14 20 -97 0 -83 -2 -92 -20 -97 -41 -11 -18 -23 45 -23
62 0 91 15 43 22 -20 3 -23 10 -26 58 -4 64 12 125 34 134 20 8 34 -1 34 -21
0 -10 6 -13 16 -9 9 3 18 6 20 6 13 0 1 41 -15 50 -29 15 -48 12 -70 -12z"/>
<path d="M3726 5549 c-21 -17 -26 -18 -26 -5 0 12 -10 16 -42 15 -42 0 -42 0
-20 -16 20 -14 22 -23 22 -105 0 -81 -2 -90 -20 -95 -40 -11 -18 -23 40 -23
33 0 60 4 60 10 0 6 -6 10 -14 10 -19 0 -26 22 -26 79 0 69 17 110 48 118 45
11 62 -24 62 -128 l0 -89 40 0 c42 0 54 14 20 23 -18 5 -20 14 -20 92 0 78 -2
88 -25 110 -30 30 -64 32 -99 4z"/>
<path d="M3970 5558 c-14 -8 -25 -22 -25 -33 0 -27 31 -31 38 -5 4 17 12 21
39 18 30 -3 33 -6 36 -39 l3 -36 -52 -5 c-64 -7 -94 -35 -85 -82 3 -16 11 -35
17 -43 18 -21 79 -16 106 9 l23 21 0 -21 c0 -18 6 -22 35 -22 19 0 35 5 35 10
0 6 -6 10 -14 10 -11 0 -15 22 -18 95 -2 70 -7 98 -19 110 -22 22 -88 29 -119
13z m90 -153 c0 -26 -6 -39 -26 -52 -33 -21 -58 -8 -62 33 -4 33 19 54 60 54
25 0 28 -3 28 -35z"/>
<path d="M4285 5558 c-11 -6 -23 -15 -26 -20 -3 -6 -9 -3 -12 6 -4 11 -19 16
-44 15 -37 0 -38 0 -15 -16 20 -14 22 -23 22 -105 0 -81 -2 -90 -20 -95 -40
-11 -18 -23 40 -23 58 0 80 12 40 23 -18 5 -20 14 -20 81 0 63 4 80 20 96 24
24 43 25 64 4 12 -12 16 -37 16 -110 l0 -94 40 0 c22 0 40 5 40 10 0 6 -7 10
-15 10 -20 0 -29 41 -22 113 7 79 43 110 81 71 12 -12 16 -37 16 -110 l0 -94
40 0 c22 0 40 5 40 10 0 6 -6 10 -14 10 -20 0 -26 23 -26 108 0 42 -4 82 -8
88 -23 35 -96 40 -122 9 -10 -13 -16 -12 -37 5 -29 23 -49 25 -78 8z"/>
<path d="M4659 5555 c-37 -20 -52 -64 -47 -132 4 -46 10 -61 32 -80 43 -36
146 -28 146 12 0 18 0 18 -37 0 -39 -19 -79 -6 -93 30 -20 52 -16 55 65 55
l75 0 0 34 c0 70 -80 116 -141 81z m89 -48 c18 -38 9 -47 -50 -47 -50 0 -50 0
-43 27 10 40 25 54 54 51 17 -2 31 -13 39 -31z"/>
<path d="M5300 5558 c-14 -8 -25 -22 -25 -33 0 -27 31 -31 38 -5 4 17 12 21
39 18 30 -3 33 -6 36 -39 l3 -36 -52 -5 c-64 -7 -94 -35 -85 -82 3 -16 11 -35
17 -43 18 -21 79 -16 106 9 l23 21 0 -21 c0 -18 6 -22 35 -22 19 0 35 5 35 10
0 6 -6 10 -14 10 -11 0 -15 22 -18 95 -2 70 -7 98 -19 110 -22 22 -88 29 -119
13z m90 -153 c0 -26 -6 -39 -26 -52 -33 -21 -58 -8 -62 33 -4 33 19 54 60 54
25 0 28 -3 28 -35z"/>
<path d="M5560 5563 c-30 -11 -50 -37 -50 -63 0 -31 18 -49 78 -79 32 -16 42
-27 42 -45 0 -43 -74 -52 -90 -11 -12 31 -30 33 -30 2 0 -35 19 -47 72 -47 54
0 88 24 88 63 0 33 -20 57 -71 81 -33 16 -45 27 -47 47 -2 20 2 28 18 32 29 8
48 -1 55 -24 8 -23 23 -25 32 -2 13 33 -51 63 -97 46z"/>
<path d="M5762 5563 c-32 -6 -55 -45 -46 -78 5 -19 21 -33 60 -53 57 -28 74
-53 53 -78 -19 -23 -72 -14 -84 14 -11 25 -28 24 -34 -3 -5 -27 26 -45 79 -45
55 0 80 21 80 67 0 34 -16 51 -77 82 -47 24 -57 53 -23 71 24 13 60 -3 60 -26
0 -23 25 -11 28 14 3 16 -4 25 -23 32 -27 10 -33 10 -73 3z"/>
<path d="M6375 5561 c-71 -31 -88 -159 -30 -217 34 -34 103 -33 142 0 26 22
28 30 28 95 0 62 -3 74 -26 96 -27 28 -82 40 -114 26z m91 -56 c17 -41 18 -83
3 -122 -12 -32 -26 -43 -55 -43 -37 0 -57 34 -58 98 0 76 15 102 60 102 31 0
37 -4 50 -35z"/>
<path d="M6665 5546 c-22 -22 -24 -22 -28 -5 -4 15 -14 19 -44 18 -37 0 -38 0
-15 -16 20 -14 22 -23 22 -105 0 -81 -2 -90 -20 -95 -41 -11 -18 -23 45 -23
37 0 65 4 65 10 0 6 -9 10 -20 10 -26 0 -34 36 -26 108 4 35 14 64 25 76 20
20 41 15 41 -11 0 -10 6 -13 16 -9 9 3 18 6 20 6 2 0 4 11 4 24 0 41 -48 48
-85 12z"/>
<path d="M1730 5551 c0 -5 9 -11 20 -14 18 -5 20 -14 20 -89 0 -105 13 -128
72 -128 25 0 49 7 60 17 17 15 18 15 18 0 0 -13 9 -17 40 -17 42 0 54 14 20
23 -18 5 -20 14 -20 111 l0 106 -40 0 c-22 0 -40 -4 -40 -10 0 -5 6 -10 14
-10 19 0 26 -22 26 -83 0 -61 -16 -97 -48 -108 -17 -6 -27 -4 -42 11 -17 17
-20 34 -20 110 l0 90 -40 0 c-22 0 -40 -4 -40 -9z"/>
<path d="M2670 5551 c0 -5 9 -11 20 -14 18 -5 20 -14 20 -89 0 -105 13 -128
72 -128 25 0 49 7 60 17 17 15 18 15 18 0 0 -13 9 -17 40 -17 42 0 54 14 20
23 -18 5 -20 14 -20 111 l0 106 -40 0 c-22 0 -40 -4 -40 -10 0 -5 6 -10 14
-10 19 0 26 -22 26 -83 0 -61 -16 -97 -48 -108 -17 -6 -27 -4 -42 11 -17 17
-20 34 -20 110 l0 90 -40 0 c-22 0 -40 -4 -40 -9z"/>
<path d="M5900 5554 c0 -4 6 -12 14 -18 8 -6 28 -56 44 -111 23 -78 33 -101
48 -103 16 -2 25 13 51 90 17 53 33 86 36 78 3 -8 18 -50 33 -92 38 -110 52
-106 93 26 22 72 38 109 54 119 21 15 20 16 -30 16 -29 1 -53 -3 -53 -9 0 -5
7 -10 15 -10 20 0 19 -19 -7 -103 l-21 -72 -32 95 c-43 128 -54 128 -96 3
l-33 -98 -22 80 -22 80 22 17 c20 17 20 18 -36 18 -32 0 -58 -3 -58 -6z"/>
<path d="M7878 5544 c20 -14 22 -23 22 -105 0 -86 -1 -90 -25 -99 -39 -15 -30
-20 35 -20 58 0 80 12 40 23 -18 5 -20 14 -20 111 l0 106 -37 0 c-37 0 -37 0
-15 -16z"/>
<path d="M8830 5540 c16 -16 20 -33 20 -94 0 -82 -6 -106 -25 -106 -8 0 -17
-4 -20 -10 -4 -6 17 -10 54 -10 59 0 81 12 41 23 -18 5 -20 14 -20 111 l0 106
-35 0 -35 0 20 -20z"/>
<path d="M8982 5544 c-23 -16 -28 -48 -13 -73 5 -7 31 -25 57 -40 37 -20 50
-32 52 -53 6 -53 -81 -65 -94 -13 -7 28 -24 24 -24 -5 0 -27 36 -43 84 -37 47
7 68 30 64 72 -2 24 -13 35 -58 60 -56 31 -71 55 -50 80 20 25 58 18 74 -12
12 -24 15 -26 21 -10 17 42 -65 65 -113 31z"/>
<path d="M9180 5540 c16 -16 20 -33 20 -94 0 -82 -6 -106 -25 -106 -8 0 -17
-4 -20 -10 -4 -6 17 -10 54 -10 59 0 81 12 41 23 -18 5 -20 14 -20 111 l0 106
-35 0 -35 0 20 -20z"/>
<path d="M9318 5544 c20 -14 22 -23 22 -106 0 -81 -2 -90 -20 -95 -39 -10 -19
-23 35 -23 30 0 55 5 55 10 0 6 -7 10 -15 10 -20 0 -29 41 -22 109 2 32 3 70
0 84 -5 23 -10 27 -41 27 -36 0 -36 0 -14 -16z"/>
<path d="M9394 5538 c-10 -13 -12 -17 -4 -10 8 6 25 12 40 12 49 0 55 -12 58
-120 l4 -100 34 0 c37 0 46 15 14 23 -18 5 -20 14 -20 89 0 103 -13 128 -69
128 -27 0 -43 -6 -57 -22z"/>
<path d="M9608 5548 c21 -10 22 -17 22 -108 0 -92 -1 -98 -22 -105 -21 -7 -20
-8 10 -12 17 -2 47 -2 65 0 29 4 30 5 10 12 -22 7 -23 12 -23 116 l0 109 -42
-1 c-38 0 -41 -2 -20 -11z"/>
<path d="M7120 5366 c-18 -22 -5 -48 22 -44 17 2 23 10 23 28 0 29 -26 38 -45
16z"/>
</g>
</svg>
